HIERARCHY
ROOT root
{
	OFFSET	0	13.1	24.9
	CHANNELS 6  Xposition Yposition Zposition Xrotation Yrotation Zrotation
	JOINT spine_1
	{
		OFFSET	0	9.99999	0
		CHANNELS 3  Xrotation Yrotation Zrotation
		JOINT spine_2
		{
			OFFSET	0	112	-10
			CHANNELS 3  Xrotation Yrotation Zrotation
			JOINT spine_3
			{
				OFFSET	0	206.5	19.3
				CHANNELS 3  Xrotation Yrotation Zrotation
				JOINT spine_4
				{
					OFFSET	0	110.4	14.6
					CHANNELS 3  Xrotation Yrotation Zrotation
					JOINT neck_1
					{
						OFFSET	0	71.8	-50.3
						CHANNELS 3  Xrotation Yrotation Zrotation
						JOINT neck_2
						{
							OFFSET	0	86.2	-25.8
							CHANNELS 3  Xrotation Yrotation Zrotation
							JOINT head_ee
							{
								OFFSET	0	179.8	-8.7
								CHANNELS 3  Xrotation Yrotation Zrotation
								End Site
								{
									OFFSET	1	0	0
								}
							}
						}
					}
					JOINT left_clavicle
					{
						OFFSET	-43.2	22.4	-70.8
						CHANNELS 3  Xrotation Yrotation Zrotation
						JOINT left_shoulder
						{
							OFFSET	-93.9	-5.79999	48.7
							CHANNELS 3  Xrotation Yrotation Zrotation
							JOINT left_elbow
							{
								OFFSET	-291.4	-30.8	15.2
								CHANNELS 3  Xrotation Yrotation Zrotation
								JOINT left_lowarm_twist
								{
									OFFSET	-110.7	-3.89999	13.6
									CHANNELS 3  Xrotation Yrotation Zrotation
									JOINT left_hand
									{
										OFFSET	-110.7	-3.89999	13.6
										CHANNELS 3  Xrotation Yrotation Zrotation
										JOINT left_ee
										{
											OFFSET	-80.8	-5.10001	12.1
											CHANNELS 3  Xrotation Yrotation Zrotation
											End Site
											{
												OFFSET	1	0	0
											}
										}
									}
								}
							}
						}
					}
					JOINT right_clavicle
					{
						OFFSET	43.2	22.4	-70.8
						CHANNELS 3  Xrotation Yrotation Zrotation
						JOINT right_shoulder
						{
							OFFSET	93.9	-5.79999	48.7
							CHANNELS 3  Xrotation Yrotation Zrotation
							JOINT right_elbow
							{
								OFFSET	291.4	-30.8	15.2
								CHANNELS 3  Xrotation Yrotation Zrotation
								JOINT right_lowarm_twist
								{
									OFFSET	110.7	-3.89999	13.6
									CHANNELS 3  Xrotation Yrotation Zrotation
									JOINT right_hand
									{
										OFFSET	110.7	-3.89999	13.6
										CHANNELS 3  Xrotation Yrotation Zrotation
										JOINT right_ee
										{
											OFFSET	80.8	-5.10001	12.1
											CHANNELS 3  Xrotation Yrotation Zrotation
											End Site
											{
												OFFSET	1	0	0
											}
										}
									}
								}
							}
						}
					}
				}
			}
		}
	}
	JOINT left_hip
	{
		OFFSET	-82.8	-127.5	0.300001
		CHANNELS 3  Xrotation Yrotation Zrotation
		JOINT left_knee
		{
			OFFSET	-28.2	-396.7	2.2
			CHANNELS 3  Xrotation Yrotation Zrotation
			JOINT left_ankle
			{
				OFFSET	-11.7	-411.3	35.4
				CHANNELS 3  Xrotation Yrotation Zrotation
				JOINT left_toes
				{
					OFFSET	0	-60	-88.6
					CHANNELS 3  Xrotation Yrotation Zrotation
					JOINT left_foot_ee
					{
						OFFSET	-22.5	-16.5	-42.2
						CHANNELS 3  Xrotation Yrotation Zrotation
						End Site
						{
							OFFSET	1	0	0
						}
					}
				}
			}
		}
	}
	JOINT right_hip
	{
		OFFSET	82.8	-127.5	0.300001
		CHANNELS 3  Xrotation Yrotation Zrotation
		JOINT right_knee
		{
			OFFSET	28.2	-396.7	2.2
			CHANNELS 3  Xrotation Yrotation Zrotation
			JOINT right_ankle
			{
				OFFSET	11.7	-411.3	35.4
				CHANNELS 3  Xrotation Yrotation Zrotation
				JOINT right_toes
				{
					OFFSET	0	-60	-88.6
					CHANNELS 3  Xrotation Yrotation Zrotation
					JOINT right_foot_ee
					{
						OFFSET	22.5	-16.5	-42.2
						CHANNELS 3  Xrotation Yrotation Zrotation
						End Site
						{
							OFFSET	1	0	0
						}
					}
				}
			}
		}
	}
}
MOTION
Frames: 11
Frame Time: 0.02
791.914 657.339 -1775.81 4.74653 76.8422 13.0472 2.48173 -1.0999 -5.4226 2.49776 -0.753145 -5.48135 2.56746 0.167497 -5.53017 2.5255 -0.706651 -5.48752 0.619739 -2.88543 3.11962 0.710014 -7.69316 3.10183 -0.0 0.0 -0.0 10.718 -4.74121 21.3562 -5.97244 -19.3795 66.2398 1.2793 -32.362 0.371224 21.8322 0.245848 -2.7612 -0.509771 -23.201 -13.2455 -0.0 0.0 -0.0 -0.285183 -0.424405 0.497341 -16.7066 23.771 -74.3344 0.543105 15.0584 -0.071783 11.2289 -0.258297 1.40885 1.33018 -7.43945 -11.8265 0.0 0.0 0.0 13.2818 31.3032 -39.4321 -23.1709 0.244525 3.52317 36.928 -32.4258 -5.78314 -3.10833 0.0 0.0 -0.0 0.0 -0.0 18.595 -2.57812 -16.5226 0.259659 0.010779 0.0383887 8.81875 -19.8671 1.28617 -2.50244 0.0 0.0 0.0 0.0 0.0 
778.366 658.433 -1786.17 5.68923 78.0107 11.9228 2.59394 -1.00875 -5.33262 2.6095 -0.667887 -5.38579 2.66943 0.226371 -5.42221 2.62898 -0.631536 -5.39016 -0.621425 -3.25085 3.17135 -0.530426 -8.38549 3.02366 -0.0 0.0 -0.0 10.3482 -4.83736 20.5633 -7.894 -18.5033 67.6672 1.27288 -32.2319 0.367795 21.8452 0.245679 -2.76285 -0.446151 -22.0624 -12.3537 -0.0 0.0 -0.0 -0.440731 -1.67602 0.637197 -17.1622 25.3481 -73.3686 0.670473 18.3731 -0.108433 9.89529 -0.242145 1.23927 1.35448 -4.71534 -10.9496 0.0 0.0 0.0 13.7984 31.6649 -40.6719 -23.1819 0.2443 3.52485 36.9278 -32.8625 -5.81723 -0.495332 0.0 0.0 -0.0 0.0 -0.0 18.6857 -2.86417 -16.1909 -1.21193 -0.0480013 -0.17979 9.02249 -19.5682 1.31362 -2.13984 0.0 0.0 0.0 0.0 0.0 
766.292 660.193 -1797.79 2.6964 79.6066 14.5164 2.67267 -0.983335 -5.26306 2.68784 -0.646926 -5.31476 2.74472 0.228386 -5.34902 2.70535 -0.618037 -5.31819 -0.881406 -3.68836 3.51436 -0.770061 -9.44558 3.31974 -0.0 0.0 -0.0 10.277 -3.87704 20.3863 -10.9314 -18.9605 67.8537 1.23589 -31.4746 0.348274 22.0472 0.243007 -2.78852 -0.318578 -21.5228 -11.276 -0.0 0.0 -0.0 -0.336921 -1.31492 0.485273 -17.0222 25.4986 -72.9375 0.769158 20.8577 -0.141569 9.95551 -0.24296 1.24692 1.23033 -3.36972 -9.59171 0.0 0.0 0.0 13.1104 29.5133 -40.0363 -22.9764 0.24843 3.49358 36.6532 -33.149 -5.81006 -0.912882 0.0 0.0 -0.0 0.0 -0.0 19.1105 -1.79741 -15.8364 -2.08505 -0.0802179 -0.309913 6.74399 -16.5564 0.979557 0.254384 -0.0 -0.0 0.0 0.0 0.0 
752.692 663.484 -1813.41 -2.1756 81.8073 19.6114 3.07053 -1.08491 -5.21202 3.08532 -0.751526 -5.27027 3.14978 0.0797246 -5.32283 3.11107 -0.760731 -5.26895 -1.5672 -4.0893 4.16989 -1.42832 -10.6886 3.90527 -0.0 0.0 -0.0 9.8691 -3.19629 19.5031 -12.7055 -15.4989 69.2827 1.19784 -30.6826 0.328629 21.0762 0.255021 -2.66507 -0.0158624 -20.1723 -8.68595 -0.0 0.0 -0.0 -0.403239 -2.79335 0.424471 -17.6373 26.4818 -72.8285 0.818415 22.0684 -0.159594 8.152 -0.215087 1.01824 1.17785 -1.70907 -8.58014 0.0 0.0 0.0 13.7024 26.7261 -40.6782 -23.1306 0.245342 3.51704 36.4473 -33.0591 -5.78033 0.970974 -0.0 -0.0 -0.0 0.0 -0.0 17.3533 -2.45217 -16.7374 -0.302999 -0.0123579 -0.0448561 10.98 -18.0326 1.58033 -0.927166 0.0 0.0 0.0 0.0 0.0 
741.118 667.714 -1824.65 -6.25601 82.3777 23.4131 3.32797 -0.990173 -5.13949 3.34241 -0.66158 -5.19188 3.39668 0.13409 -5.23204 3.35917 -0.692763 -5.18783 -0.97998 -4.1669 4.57808 -0.812088 -11.1588 4.39456 -0.0 0.0 -0.0 9.51056 -0.889429 18.6824 -14.4705 -15.9949 69.2966 1.08287 -28.2092 0.272098 20.5659 0.260495 -2.60012 0.161339 -19.9505 -7.40876 -0.0 0.0 -0.0 -0.142935 -4.26937 -0.243803 -17.4776 26.0667 -71.2013 0.910443 24.2754 -0.195812 7.49982 -0.203237 0.935777 0.963642 -1.10471 -6.89816 0.0 0.0 0.0 14.6106 24.1815 -40.4216 -24.2152 0.221836 3.68182 36.9392 -33.2509 -5.84942 2.58612 -0.0 -0.0 -0.0 0.0 -0.0 16.8028 -2.50458 -16.9497 0.20035 0.00830175 0.0296245 9.52406 -16.0396 1.36969 -1.53436 0.0 0.0 0.0 0.0 0.0 
734.261 669.576 -1831.81 -13.9168 82.3553 31.0423 3.35457 -0.887162 -5.4045 3.37065 -0.541985 -5.44981 3.41568 0.290266 -5.46894 3.37443 -0.575783 -5.44636 -1.37202 -5.14953 5.65086 -1.12369 -13.7769 5.383 -0.0 0.0 -0.0 8.96686 1.96159 17.4651 -18.5272 -15.66 70.256 1.02962 -27.0229 0.247413 20.4425 0.261732 -2.58441 0.131364 -20.1576 -7.6966 -0.0 0.0 -0.0 -0.123114 -5.55622 -0.436293 -15.8407 28.124 -68.2745 0.99722 26.2885 -0.232878 6.57674 -0.184861 0.819295 0.963399 0.691472 -6.16548 0.0 0.0 0.0 14.7748 21.0528 -39.7786 -25.388 0.192913 3.85947 36.5531 -32.0022 -5.71029 4.16225 -0.0 -0.0 -0.0 0.0 -0.0 15.7823 -2.28709 -17.4683 3.56722 0.16325 0.522909 9.0768 -15.4124 1.3053 -1.93792 0.0 0.0 0.0 0.0 0.0 
723.192 673.75 -1842.44 -17.6969 80.9667 34.6188 3.44843 -0.69215 -5.46251 3.46495 -0.34369 -5.49535 3.49071 0.486898 -5.48455 3.44896 -0.38405 -5.49269 -1.42731 -5.97769 6.59883 -1.08939 -16.0187 6.29692 -0.0 0.0 -0.0 8.47676 6.11869 16.3011 -21.5722 -14.1284 69.6364 0.881514 -23.5895 0.184077 20.3147 0.262978 -2.56813 0.189008 -19.7135 -7.12338 -0.0 0.0 -0.0 -0.132208 -7.91789 -0.705562 -14.063 27.0329 -68.1063 1.05812 27.6611 -0.260505 5.44356 -0.15974 0.676722 0.901233 1.77781 -5.30031 0.0 0.0 0.0 16.137 16.3709 -38.6462 -30.0468 0.0422718 4.5584 37.2905 -30.2884 -5.66441 6.31342 -0.0 -0.0 -0.0 0.0 -0.0 15.415 -2.20669 -18.4024 5.45158 0.262568 0.794843 6.90363 -14.1965 0.997001 -3.25617 0.0 0.0 0.0 0.0 0.0 
708.051 677.613 -1852.78 -20.3891 81.4078 37.605 3.66166 -0.844994 -5.59073 3.6789 -0.488107 -5.63298 3.71838 0.341729 -5.64372 3.67438 -0.552435 -5.62706 -1.59184 -6.09676 8.07511 -1.14797 -17.4026 7.84452 -0.0 0.0 -0.0 7.89673 5.3306 15.2326 -26.9576 -13.9865 71.3161 0.768601 -20.8439 0.141371 22.0231 0.24333 -2.78546 -0.109261 -18.2664 -8.5082 -0.0 0.0 -0.0 -0.264117 -7.81194 -0.458863 -12.9244 29.1668 -66.5948 1.15526 29.7808 -0.307194 5.57707 -0.162846 0.693495 0.916646 2.27763 -5.19761 0.0 0.0 0.0 15.5174 11.4876 -37.6546 -32.2702 -0.0495625 4.88722 37.2658 -30.4658 -5.67429 8.74775 -0.0 -0.0 -0.0 0.0 -0.0 14.9434 -1.78352 -19.3158 4.49588 0.211075 0.657323 8.67513 -13.8349 1.24514 -2.82417 0.0 0.0 0.0 0.0 0.0 
698.949 680.362 -1863.26 -26.1893 80.5865 43.4037 4.0084 -0.532134 -5.42379 4.02474 -0.186449 -5.44657 4.03281 0.584289 -5.41843 3.99197 -0.277476 -5.4427 -1.60197 -7.04494 7.2845 -1.17329 -18.4777 6.88384 -0.0 0.0 -0.0 7.59972 9.09464 14.5054 -28.3915 -11.807 69.4701 0.716804 -19.5491 0.123487 20.1501 0.264528 -2.54717 0.147566 -18.4621 -6.86782 -0.0 0.0 -0.0 0.380061 -7.61318 -1.57895 -10.2617 26.3875 -65.5037 1.16964 30.0871 -0.314366 4.46532 -0.135788 0.554057 0.916383 2.99617 -4.89789 0.0 0.0 0.0 16.125 7.37393 -36.614 -35.2752 -0.193855 5.32561 37.5824 -27.8746 -5.53495 8.62445 -0.0 -0.0 -0.0 0.0 -0.0 15.003 -1.9859 -20.097 5.33405 0.256111 0.777975 7.76924 -11.6315 1.11477 -3.69027 0.0 0.0 0.0 0.0 0.0 
689.529 683.757 -1869.12 -27.4702 79.2464 44.6399 4.16086 -0.172134 -5.51785 4.17777 0.178787 -5.51764 4.14988 0.946438 -5.43904 4.10863 0.0769288 -5.51999 -1.67542 -7.6322 7.69756 -1.1884 -19.859 7.24925 -0.0 0.0 -0.0 7.7319 10.0383 14.6931 -29.8947 -9.91361 69.8529 0.697495 -19.061 0.117104 20.0667 0.265292 -2.53653 0.183494 -18.7727 -6.75963 -0.0 0.0 -0.0 0.703103 -7.16458 -2.10666 -9.37817 26.2508 -64.5223 1.20145 30.7585 -0.330479 4.17823 -0.128361 0.518137 0.859117 3.39029 -4.34759 0.0 0.0 0.0 15.9517 4.37934 -35.5629 -36.8459 -0.278396 5.55166 37.76 -27.3454 -5.52027 9.38339 -0.0 -0.0 -0.0 0.0 -0.0 14.8546 -1.35364 -21.0242 6.40708 0.316342 0.931471 7.62628 -10.9904 1.09405 -4.01996 0.0 0.0 0.0 0.0 0.0 
677.135 684.475 -1878.99 -32.0786 78.9911 49.2911 4.17128 -0.403441 -5.58991 4.18865 -0.0474924 -5.6042 4.18227 0.730331 -5.55676 4.13924 -0.154995 -5.60226 0.096122 -5.8598 7.88857 0.57974 -16.8751 7.968 -0.0 0.0 -0.0 7.6104 10.4111 14.4529 -31.2664 -9.60254 70.2076 0.6328 -17.4048 0.0968599 21.0896 0.254869 -2.66678 0.198383 -16.9511 -5.88268 -0.0 0.0 -0.0 0.701842 -7.33532 -2.12197 -9.42337 26.0865 -63.8341 1.23782 31.5144 -0.349281 3.07008 -0.0980079 0.37984 1.07726 5.00023 -5.14849 0.0 0.0 0.0 10.5345 -7.32657 -32.2168 -38.7166 -0.387142 5.81778 37.0545 -23.3421 -5.22954 9.94884 -0.0 -0.0 -0.0 0.0 -0.0 15.1097 -0.237451 -21.7258 6.53791 0.323883 0.95011 9.17198 -7.94757 1.3074 -3.56256 0.0 0.0 0.0 0.0 0.0 
